<svg width="152" height="44" viewBox="0 0 152 44" fill="none" xmlns="http://www.w3.org/2000/svg">
<path d="M15.121 27.8037C17.1527 26.6554 19.4998 26 22 26C24.5002 26 26.8473 26.6554 28.879 27.8037M25 20C25 21.6569 23.6569 23 22 23C20.3431 23 19 21.6569 19 20C19 18.3431 20.3431 17 22 17C23.6569 17 25 18.3431 25 20ZM31 22C31 26.9706 26.9706 31 22 31C17.0294 31 13 26.9706 13 22C13 17.0294 17.0294 13 22 13C26.9706 13 31 17.0294 31 22Z" stroke="#5D5FEF" stroke-width="2" stroke-linecap="round" stroke-linejoin="round"/>
<path d="M45.6506 27H44.358L48.0966 16.8182H49.3693L53.108 27H51.8153L48.7727 18.429H48.6932L45.6506 27ZM46.1278 23.0227H51.3381V24.1165H46.1278V23.0227ZM57.6983 27.1591C57.062 27.1591 56.5002 26.9983 56.013 26.6768C55.5257 26.352 55.1446 25.8946 54.8695 25.3047C54.5944 24.7114 54.4568 24.0104 54.4568 23.2017C54.4568 22.3996 54.5944 21.7036 54.8695 21.1136C55.1446 20.5237 55.5274 20.0679 56.0179 19.7464C56.5085 19.425 57.0752 19.2642 57.7182 19.2642C58.2154 19.2642 58.6081 19.3471 58.8965 19.5128C59.1881 19.6752 59.4102 19.8608 59.5627 20.0696C59.7184 20.2751 59.8394 20.4441 59.9256 20.5767H60.025V16.8182H61.1983V27H60.0648V25.8267H59.9256C59.8394 25.9659 59.7168 26.1416 59.5577 26.3537C59.3986 26.5625 59.1716 26.7498 58.8766 26.9155C58.5816 27.0779 58.1889 27.1591 57.6983 27.1591ZM57.8574 26.1051C58.3281 26.1051 58.7258 25.9825 59.0506 25.7372C59.3754 25.4886 59.6223 25.1456 59.7914 24.7081C59.9604 24.2673 60.0449 23.7585 60.0449 23.1818C60.0449 22.6117 59.9621 22.1129 59.7963 21.6854C59.6306 21.2545 59.3854 20.9197 59.0605 20.6811C58.7357 20.4392 58.3347 20.3182 57.8574 20.3182C57.3603 20.3182 56.946 20.4458 56.6145 20.701C56.2864 20.9529 56.0395 21.2959 55.8737 21.7301C55.7113 22.161 55.6301 22.6449 55.6301 23.1818C55.6301 23.7254 55.713 24.2192 55.8787 24.6634C56.0478 25.1042 56.2963 25.4555 56.6245 25.7173C56.9559 25.9759 57.3669 26.1051 57.8574 26.1051ZM63.7901 27V19.3636H64.9236V20.517H65.0032C65.1424 20.1392 65.3943 19.8326 65.7589 19.5973C66.1234 19.362 66.5344 19.2443 66.9918 19.2443C67.078 19.2443 67.1857 19.246 67.315 19.2493C67.4442 19.2526 67.542 19.2576 67.6083 19.2642V20.4574C67.5685 20.4474 67.4774 20.4325 67.3349 20.4126C67.1957 20.3894 67.0482 20.3778 66.8924 20.3778C66.5212 20.3778 66.1897 20.4557 65.8981 20.6115C65.6097 20.764 65.381 20.9761 65.212 21.2479C65.0463 21.5163 64.9634 21.8229 64.9634 22.1676V27H63.7901ZM69.2791 27V19.3636H70.4524V27H69.2791ZM69.8757 18.0909C69.647 18.0909 69.4498 18.013 69.2841 17.8572C69.1217 17.7015 69.0405 17.5142 69.0405 17.2955C69.0405 17.0767 69.1217 16.8894 69.2841 16.7337C69.4498 16.5779 69.647 16.5 69.8757 16.5C70.1044 16.5 70.2999 16.5779 70.4623 16.7337C70.6281 16.8894 70.7109 17.0767 70.7109 17.2955C70.7109 17.5142 70.6281 17.7015 70.4623 17.8572C70.2999 18.013 70.1044 18.0909 69.8757 18.0909ZM75.1285 27.179C74.6446 27.179 74.2055 27.0878 73.8111 26.9055C73.4166 26.7199 73.1034 26.4531 72.8714 26.1051C72.6394 25.7538 72.5234 25.3295 72.5234 24.8324C72.5234 24.3949 72.6096 24.0402 72.7819 23.7685C72.9543 23.4934 73.1846 23.2779 73.473 23.1222C73.7613 22.9664 74.0795 22.8504 74.4275 22.7741C74.7789 22.6946 75.1318 22.6316 75.4865 22.5852C75.9505 22.5256 76.3267 22.4808 76.615 22.451C76.9067 22.4179 77.1188 22.3632 77.2514 22.2869C77.3873 22.2107 77.4552 22.0781 77.4552 21.8892V21.8494C77.4552 21.3589 77.321 20.9777 77.0525 20.706C76.7874 20.4342 76.3847 20.2983 75.8444 20.2983C75.2843 20.2983 74.8451 20.4209 74.527 20.6662C74.2088 20.9115 73.9851 21.1733 73.8558 21.4517L72.7422 21.054C72.941 20.59 73.2062 20.2287 73.5376 19.9702C73.8724 19.7083 74.237 19.526 74.6314 19.4233C75.0291 19.3172 75.4202 19.2642 75.8047 19.2642C76.0499 19.2642 76.3316 19.294 76.6498 19.3537C76.9713 19.41 77.2812 19.5277 77.5795 19.7067C77.8811 19.8857 78.1314 20.1558 78.3302 20.517C78.5291 20.8783 78.6285 21.3622 78.6285 21.9688V27H77.4552V25.9659H77.3956C77.316 26.1316 77.1834 26.3089 76.9978 26.4979C76.8122 26.6868 76.5653 26.8475 76.2571 26.9801C75.9488 27.1127 75.5727 27.179 75.1285 27.179ZM75.3075 26.125C75.7715 26.125 76.1626 26.0339 76.4808 25.8516C76.8023 25.6693 77.0442 25.4339 77.2066 25.1456C77.3724 24.8572 77.4552 24.554 77.4552 24.2358V23.1619C77.4055 23.2216 77.2961 23.2763 77.1271 23.326C76.9614 23.3724 76.7691 23.4138 76.5504 23.4503C76.335 23.4834 76.1245 23.5133 75.919 23.5398C75.7168 23.563 75.5528 23.5829 75.4268 23.5994C75.1219 23.6392 74.8369 23.7038 74.5717 23.7933C74.3099 23.8795 74.0977 24.0104 73.9353 24.1861C73.7763 24.3584 73.6967 24.5937 73.6967 24.892C73.6967 25.2997 73.8475 25.608 74.1491 25.8168C74.454 26.0223 74.8402 26.125 75.3075 26.125ZM82.2233 22.4062V27H81.05V19.3636H82.1836V20.5568H82.283C82.462 20.169 82.7337 19.8575 83.0983 19.6222C83.4629 19.3835 83.9336 19.2642 84.5103 19.2642C85.0273 19.2642 85.4797 19.3703 85.8675 19.5824C86.2553 19.7912 86.5569 20.1094 86.7723 20.5369C86.9878 20.9612 87.0955 21.4981 87.0955 22.1477V27H85.9222V22.2273C85.9222 21.6274 85.7664 21.16 85.4549 20.8253C85.1433 20.4872 84.7158 20.3182 84.1722 20.3182C83.7977 20.3182 83.4629 20.3994 83.1679 20.5618C82.8763 20.7242 82.6459 20.9612 82.4769 21.2727C82.3078 21.5843 82.2233 21.9621 82.2233 22.4062ZM91.7666 27.179C91.2827 27.179 90.8436 27.0878 90.4492 26.9055C90.0548 26.7199 89.7416 26.4531 89.5095 26.1051C89.2775 25.7538 89.1615 25.3295 89.1615 24.8324C89.1615 24.3949 89.2477 24.0402 89.4201 23.7685C89.5924 23.4934 89.8228 23.2779 90.1111 23.1222C90.3995 22.9664 90.7176 22.8504 91.0657 22.7741C91.417 22.6946 91.77 22.6316 92.1246 22.5852C92.5886 22.5256 92.9648 22.4808 93.2532 22.451C93.5448 22.4179 93.7569 22.3632 93.8895 22.2869C94.0254 22.2107 94.0934 22.0781 94.0934 21.8892V21.8494C94.0934 21.3589 93.9591 20.9777 93.6907 20.706C93.4255 20.4342 93.0228 20.2983 92.4826 20.2983C91.9224 20.2983 91.4833 20.4209 91.1651 20.6662C90.8469 20.9115 90.6232 21.1733 90.4939 21.4517L89.3803 21.054C89.5791 20.59 89.8443 20.2287 90.1757 19.9702C90.5105 19.7083 90.8751 19.526 91.2695 19.4233C91.6672 19.3172 92.0583 19.2642 92.4428 19.2642C92.688 19.2642 92.9698 19.294 93.288 19.3537C93.6095 19.41 93.9193 19.5277 94.2176 19.7067C94.5193 19.8857 94.7695 20.1558 94.9684 20.517C95.1672 20.8783 95.2666 21.3622 95.2666 21.9688V27H94.0934V25.9659H94.0337C93.9541 26.1316 93.8216 26.3089 93.636 26.4979C93.4504 26.6868 93.2034 26.8475 92.8952 26.9801C92.587 27.1127 92.2108 27.179 91.7666 27.179ZM91.9456 26.125C92.4096 26.125 92.8007 26.0339 93.1189 25.8516C93.4404 25.6693 93.6824 25.4339 93.8448 25.1456C94.0105 24.8572 94.0934 24.554 94.0934 24.2358V23.1619C94.0436 23.2216 93.9343 23.2763 93.7652 23.326C93.5995 23.3724 93.4073 23.4138 93.1885 23.4503C92.9731 23.4834 92.7626 23.5133 92.5571 23.5398C92.355 23.563 92.1909 23.5829 92.0649 23.5994C91.76 23.6392 91.475 23.7038 91.2098 23.7933C90.948 23.8795 90.7359 24.0104 90.5735 24.1861C90.4144 24.3584 90.3348 24.5937 90.3348 24.892C90.3348 25.2997 90.4856 25.608 90.7872 25.8168C91.0922 26.0223 91.4783 26.125 91.9456 26.125ZM102.482 27H101.19L104.928 16.8182H106.201L109.94 27H108.647L105.605 18.429H105.525L102.482 27ZM102.96 23.0227H108.17V24.1165H102.96V23.0227ZM111.647 27V19.3636H112.78V20.517H112.86C112.999 20.1392 113.251 19.8326 113.615 19.5973C113.98 19.362 114.391 19.2443 114.848 19.2443C114.934 19.2443 115.042 19.246 115.171 19.2493C115.301 19.2526 115.398 19.2576 115.465 19.2642V20.4574C115.425 20.4474 115.334 20.4325 115.191 20.4126C115.052 20.3894 114.905 20.3778 114.749 20.3778C114.378 20.3778 114.046 20.4557 113.755 20.6115C113.466 20.764 113.238 20.9761 113.068 21.2479C112.903 21.5163 112.82 21.8229 112.82 22.1676V27H111.647ZM117.136 27V19.3636H118.309V27H117.136ZM117.732 18.0909C117.503 18.0909 117.306 18.013 117.141 17.8572C116.978 17.7015 116.897 17.5142 116.897 17.2955C116.897 17.0767 116.978 16.8894 117.141 16.7337C117.306 16.5779 117.503 16.5 117.732 16.5C117.961 16.5 118.156 16.5779 118.319 16.7337C118.485 16.8894 118.567 17.0767 118.567 17.2955C118.567 17.5142 118.485 17.7015 118.319 17.8572C118.156 18.013 117.961 18.0909 117.732 18.0909ZM122.985 27.179C122.501 27.179 122.062 27.0878 121.668 26.9055C121.273 26.7199 120.96 26.4531 120.728 26.1051C120.496 25.7538 120.38 25.3295 120.38 24.8324C120.38 24.3949 120.466 24.0402 120.638 23.7685C120.811 23.4934 121.041 23.2779 121.329 23.1222C121.618 22.9664 121.936 22.8504 122.284 22.7741C122.635 22.6946 122.988 22.6316 123.343 22.5852C123.807 22.5256 124.183 22.4808 124.472 22.451C124.763 22.4179 124.975 22.3632 125.108 22.2869C125.244 22.2107 125.312 22.0781 125.312 21.8892V21.8494C125.312 21.3589 125.177 20.9777 124.909 20.706C124.644 20.4342 124.241 20.2983 123.701 20.2983C123.141 20.2983 122.702 20.4209 122.383 20.6662C122.065 20.9115 121.842 21.1733 121.712 21.4517L120.599 21.054C120.798 20.59 121.063 20.2287 121.394 19.9702C121.729 19.7083 122.093 19.526 122.488 19.4233C122.886 19.3172 123.277 19.2642 123.661 19.2642C123.906 19.2642 124.188 19.294 124.506 19.3537C124.828 19.41 125.138 19.5277 125.436 19.7067C125.738 19.8857 125.988 20.1558 126.187 20.517C126.386 20.8783 126.485 21.3622 126.485 21.9688V27H125.312V25.9659H125.252C125.173 26.1316 125.04 26.3089 124.854 26.4979C124.669 26.6868 124.422 26.8475 124.114 26.9801C123.805 27.1127 123.429 27.179 122.985 27.179ZM123.164 26.125C123.628 26.125 124.019 26.0339 124.337 25.8516C124.659 25.6693 124.901 25.4339 125.063 25.1456C125.229 24.8572 125.312 24.554 125.312 24.2358V23.1619C125.262 23.2216 125.153 23.2763 124.984 23.326C124.818 23.3724 124.626 23.4138 124.407 23.4503C124.191 23.4834 123.981 23.5133 123.775 23.5398C123.573 23.563 123.409 23.5829 123.283 23.5994C122.978 23.6392 122.693 23.7038 122.428 23.7933C122.166 23.8795 121.954 24.0104 121.792 24.1861C121.633 24.3584 121.553 24.5937 121.553 24.892C121.553 25.2997 121.704 25.608 122.006 25.8168C122.311 26.0223 122.697 26.125 123.164 26.125ZM134.316 21.0739L133.262 21.3722C133.195 21.1965 133.098 21.0258 132.968 20.8601C132.842 20.6911 132.67 20.5518 132.451 20.4425C132.233 20.3331 131.952 20.2784 131.611 20.2784C131.144 20.2784 130.754 20.3861 130.443 20.6016C130.135 20.8137 129.98 21.0838 129.98 21.4119C129.98 21.7036 130.086 21.9339 130.299 22.103C130.511 22.272 130.842 22.4129 131.293 22.5256L132.426 22.804C133.109 22.9697 133.618 23.2232 133.953 23.5646C134.287 23.9027 134.455 24.3385 134.455 24.8722C134.455 25.3097 134.329 25.7008 134.077 26.0455C133.828 26.3902 133.48 26.6619 133.033 26.8608C132.585 27.0597 132.065 27.1591 131.472 27.1591C130.693 27.1591 130.048 26.9901 129.538 26.652C129.027 26.3139 128.704 25.8201 128.568 25.1705L129.682 24.892C129.788 25.303 129.989 25.6113 130.284 25.8168C130.582 26.0223 130.971 26.125 131.452 26.125C131.999 26.125 132.433 26.009 132.755 25.777C133.079 25.5417 133.242 25.2599 133.242 24.9318C133.242 24.6667 133.149 24.4446 132.963 24.2656C132.778 24.0833 132.493 23.9474 132.108 23.858L130.835 23.5597C130.136 23.3939 129.622 23.1371 129.294 22.7891C128.969 22.4377 128.807 21.9986 128.807 21.4716C128.807 21.0407 128.928 20.6596 129.17 20.3281C129.415 19.9967 129.748 19.7365 130.169 19.5476C130.594 19.3587 131.074 19.2642 131.611 19.2642C132.367 19.2642 132.96 19.4299 133.391 19.7614C133.825 20.0928 134.133 20.5303 134.316 21.0739Z" fill="#605DEC"/>
</svg>
